<svg width="496" height="280" viewBox="0 0 496 280" fill="none" xmlns="http://www.w3.org/2000/svg">
<path d="M496 174.4L487.3 170.9C477.2 182.5 465.2 192.5 451.4 200.2L461 251.3L411.2 265.9L391.7 217.7C375.9 218.6 360.4 216.7 345.6 212.4L315.5 255.3L274.1 232.7L293.9 184.1C282.3 174 272.3 162 264.6 148.2L213.5 157.8L199 108.2L247.2 88.7C246.3 72.9 248.2 57.4 252.5 42.6L209.6 12.5L216.3 0H338.9C301.9 20.6 282.7 64.7 295.1 107C309.5 156.1 361 184.2 410 169.8C459.1 155.4 487.2 103.9 472.8 54.9C465.7 30.5 449.5 11.4 429 0H496V174.4ZM332.3 61.1C332.3 67.2 344.7 72.2 360.1 72.2C375.4 72.2 387.9 67.2 387.9 61.1C387.9 55 375.5 50 360.1 50C344.8 50 332.3 54.9 332.3 61.1ZM332.3 99.2C332.3 105.3 344.7 110.3 360.1 110.3C375.4 110.3 387.9 105.3 387.9 99.2C387.9 93.1 375.5 88.1 360.1 88.1C344.8 88.1 332.3 93.1 332.3 99.2ZM392.5 20.7C391.8 24.3 393.8 27.7 397.2 29.1C417.8 37.2 432.4 57.3 432.4 80.7C432.4 104.1 417.8 124.2 397.2 132.3C393.8 133.6 391.8 137.1 392.5 140.7C393.4 145.3 398.2 147.8 402.6 146.1C428.7 135.8 447.2 110.4 447.2 80.7C447.2 51 428.7 25.6 402.6 15.3C398.2 13.6 393.4 16.1 392.5 20.7Z" fill="#FF7200"/>
<path d="M57.8 26.4C56.5 26.4 55.3 26.5 54.4 26.7V39.6C55.1 39.7 56 39.8 57.2 39.8C59.5 39.8 61.3 39.3 62.5 38.2C63.5 37.3 64.5 35.7 64.5 32.9C64.5 30.5 63.8 28.9 62.5 27.9C61.5 26.8 60 26.4 57.8 26.4ZM57.9 37.7C57.6 37.7 57.2 37.7 56.9 37.6V28.4C57.2 28.4 57.6 28.3 58.1 28.3C60.4 28.3 61.9 29.8 61.9 32.7C61.9 36.2 60.3 37.7 57.9 37.7Z" fill="#BFBFBF"/>
<path d="M70.2 29.9C67.4 29.9 65.9 32.3 65.9 35C65.9 37.9 67.6 39.8 70.5 39.8C71.7 39.8 72.8 39.6 73.6 39.3L73.2 37.6C72.6 37.8 71.8 38 70.9 38C69.5 38 68.4 37.4 68.3 35.7H74C74.1 35.4 74.1 35.1 74.1 34.7C74 31.5 72.5 29.9 70.2 29.9ZM68.2 33.8C68.3 32.9 68.8 31.6 70 31.6C71.2 31.6 71.6 32.8 71.6 33.8H68.2Z" fill="#BFBFBF"/>
<path d="M81 30.1L79.8 34.7C79.6 35.5 79.4 36.3 79.3 37.1H79.2C79 36.3 78.9 35.5 78.7 34.7L77.5 30.1H74.8L78 39.6H80.4L83.6 30.1H81Z" fill="#BFBFBF"/>
<path d="M31.3 38.7001C30.8 39.3001 30.5 39.8001 30.2 40.3001C30.1 40.4001 30 40.8001 30 41.0001V41.3001C30 41.9001 30.5 42.4001 31.1 42.4001H47.6C48.2 42.4001 48.7 41.9001 48.7 41.3001V28.7001C39.6 30.3001 34.1 35.2001 31.3 38.7001Z" fill="#BFBFBF"/>
<path d="M87.6 33.8H91.9V31.8H87.6V28.6H92.1V26.5H85.1V39.6H92.4V37.5H87.6V33.8Z" fill="#BFBFBF"/>
<path d="M101.9 30.1001H99.2L98.3 31.8001C98.1 32.3001 97.8 32.8001 97.6 33.3001C97.4 32.8001 97.1 32.3001 96.9 31.8001L96 30.1001H93.2L96 34.8001L93.1 39.6001H95.8L96.7 37.8001C96.9 37.3001 97.2 36.8001 97.4 36.3001C97.6 36.8001 97.9 37.3001 98.1 37.8001L99 39.6001H101.8L98.9 34.7001L101.9 30.1001Z" fill="#BFBFBF"/>
<path d="M108.3 29.9C107.1 29.9 106.1 30.4 105.5 31.4L105.4 30.1H103.2C103.2 31 103.3 32 103.3 33.2V43.4H105.8V38.7C106.2 39.3 107 39.8 108 39.8C109.9 39.8 111.9 38.3 111.9 34.8C111.9 31.8 110.4 29.9 108.3 29.9ZM107.4 37.8C106.5 37.8 105.7 37.1 105.7 35.8V34C105.7 32.9 106.5 31.9 107.4 31.9C108.6 31.9 109.3 33.1 109.3 34.8C109.4 36.5 108.7 37.8 107.4 37.8Z" fill="#BFBFBF"/>
<path d="M116 31.7001L115.8 30H113.6C113.6 30.9 113.7 31.8 113.7 33V39.5H116.2V34.6C116.2 33 117.1 32.2001 118.2 32.2001C118.5 32.2001 118.7 32.2 118.8 32.3V29.9C118.6 29.9 118.5 29.8 118.2 29.8C117.4 29.9 116.4 30.5001 116 31.7001Z" fill="#BFBFBF"/>
<path d="M124.1 29.9C121.3 29.9 119.8 32.3 119.8 35C119.8 37.9 121.5 39.8 124.4 39.8C125.6 39.8 126.7 39.6 127.5 39.3L127.1 37.6C126.5 37.8 125.7 38 124.8 38C123.4 38 122.3 37.4 122.2 35.7H127.9C128 35.4 128 35.1 128 34.7C127.9 31.5 126.4 29.9 124.1 29.9ZM122.2 33.8C122.3 32.9 122.8 31.6 124 31.6C125.2 31.6 125.6 32.8 125.6 33.8H122.2Z" fill="#BFBFBF"/>
<path d="M133.1 33.9C132 33.4 131.7 33.2 131.7 32.6C131.7 32.1 132.1 31.7 132.9 31.7C133.6 31.7 134.3 32 134.7 32.2L135.2 30.4C134.7 30.1 133.8 29.9 132.9 29.9C130.8 29.9 129.4 31.2 129.4 32.9C129.4 33.9 130 34.9 131.8 35.7C132.8 36.1 133.2 36.4 133.2 37C133.2 37.6 132.8 38 131.9 38C131.1 38 130.2 37.7 129.7 37.4L129.2 39.2C129.8 39.6 130.8 39.8 131.9 39.8C134.3 39.8 135.6 38.6 135.6 36.8C135.5 35.4 134.7 34.5 133.1 33.9Z" fill="#BFBFBF"/>
<path d="M140.7 33.9C139.6 33.4 139.3 33.2 139.3 32.6C139.3 32.1 139.7 31.7 140.5 31.7C141.2 31.7 141.9 32 142.3 32.2L142.8 30.4C142.3 30.1 141.4 29.9 140.5 29.9C138.4 29.9 137 31.2 137 32.9C137 33.9 137.6 34.9 139.4 35.7C140.4 36.1 140.8 36.4 140.8 37C140.8 37.6 140.4 38 139.5 38C138.7 38 137.8 37.7 137.3 37.4L136.8 39.2C137.4 39.6 138.4 39.8 139.5 39.8C141.9 39.8 143.2 38.6 143.2 36.8C143 35.4 142.3 34.5 140.7 33.9Z" fill="#BFBFBF"/>
<path d="M47.6 23.8H31.1C30.5 23.8 30 24.3 30 24.9V34.8C33.3 31.4 39.1 27.6 48 26.6C48.2 26.6 48.7 26.5 48.7 25.8V24.9C48.7 24.3 48.2 23.8 47.6 23.8Z" fill="#BFBFBF"/>
<path d="M145.5 29.5C145.8 29.4 145.9 29.3 145.9 29C145.9 28.8 145.8 28.7 145.7 28.6C145.6 28.5 145.4 28.5 145.2 28.5H144.6V30.2H144.9V29.5H145C145.1 29.5 145.2 29.6 145.3 29.8L145.5 30.2H145.9L145.7 29.7C145.7 29.7 145.6 29.6 145.5 29.5ZM145.2 29.4H145V28.9H145.2C145.4 28.9 145.5 29 145.5 29.1C145.5 29.2 145.5 29.2 145.4 29.3C145.4 29.3 145.3 29.4 145.2 29.4Z" fill="#BFBFBF"/>
<path d="M146.2 28.5001C145.9 28.2001 145.6 28.1001 145.2 28.1001C144.8 28.1001 144.5 28.2001 144.2 28.5001C143.9 28.8001 143.8 29.1001 143.8 29.5001C143.8 29.9001 143.9 30.2001 144.2 30.5001C144.5 30.8001 144.8 30.9001 145.2 30.9001C145.6 30.9001 145.9 30.8001 146.2 30.5001C146.5 30.2001 146.6 29.9001 146.6 29.5001C146.7 29.1001 146.5 28.7001 146.2 28.5001ZM146.1 30.3001C145.9 30.5001 145.6 30.6001 145.3 30.6001C145 30.6001 144.7 30.5001 144.5 30.3001C144.3 30.1001 144.2 29.8001 144.2 29.5001C144.2 29.2001 144.3 28.9001 144.5 28.7001C144.7 28.5001 145 28.4001 145.4 28.4001C145.7 28.4001 146 28.5001 146.2 28.7001C146.4 28.9001 146.5 29.2001 146.5 29.5001C146.4 29.8001 146.3 30.1001 146.1 30.3001Z" fill="#BFBFBF"/>
<path d="M36.9001 252L33.1 235H32.9001C33.1001 236.3 33.2001 237.5 33.2001 238.6V252H29.8V232H35.5L38.9001 247.7H39L42.4001 232H48.2001V252H44.7001V238.5C44.7001 237.4 44.8001 236.2 44.9001 235.1H44.8L41 252H36.9001Z" fill="#404040"/>
<path d="M59.0001 252L58.3001 249.9H58.2001C57.7001 250.8 57.1001 251.4 56.5001 251.7C55.9001 252 55.2001 252.2 54.3001 252.2C53.2001 252.2 52.3001 251.8 51.7001 250.9C51.1001 250 50.7001 248.9 50.7001 247.4C50.7001 245.8 51.1001 244.6 52.0001 243.8C52.9001 243 54.2001 242.6 55.9001 242.5L57.9001 242.4V241.3C57.9001 239.9 57.3001 239.2 56.1001 239.2C55.2001 239.2 54.1001 239.6 53.0001 240.3L51.7001 237.8C53.2001 236.8 54.9001 236.4 56.6001 236.4C58.2001 236.4 59.4001 236.9 60.3001 237.8C61.1001 238.7 61.6001 240 61.6001 241.7V252H59.0001ZM55.8001 249.4C56.5001 249.4 57.0001 249.1 57.4001 248.5C57.8001 247.9 58.0001 247.1 58.0001 246.1V244.8L56.9001 244.9C56.1001 244.9 55.5001 245.2 55.1001 245.6C54.7001 246 54.5001 246.7 54.5001 247.5C54.5001 248.8 54.9001 249.4 55.8001 249.4Z" fill="#404040"/>
<path d="M64.4 232.8C64.4 232.2 64.6 231.7 64.9 231.4C65.3 231 65.7 230.9 66.4 230.9C67 230.9 67.5 231.1 67.8 231.4C68.1 231.7 68.3 232.2 68.3 232.8C68.3 233.4 68.1 233.9 67.8 234.2C67.4 234.5 67 234.7 66.4 234.7C65.8 234.7 65.3 234.5 65 234.2C64.6 233.9 64.4 233.4 64.4 232.8ZM68.2 252H64.6V236.8H68.2V252Z" fill="#404040"/>
<path d="M78.9 252V242.9C78.9 241.8 78.8 241 78.5 240.4C78.2 239.8 77.8 239.6 77.2 239.6C76.4 239.6 75.8 240 75.5 240.8C75.1 241.6 75 242.9 75 244.7V252H71.4V236.8H74.3L74.7 238.8H74.9C75.2 238.1 75.7 237.5 76.3 237.2C76.9 236.8 77.6 236.6 78.4 236.6C79.8 236.6 80.8 237.1 81.5 238C82.2 238.9 82.5 240.3 82.5 242.2V252.1H78.9V252Z" fill="#404040"/>
<path d="M105.4 241.8C105.4 245.1 104.7 247.6 103.4 249.4C102.1 251.1 100.1 252 97.6001 252H92.7001V232H98.0001C100.3 232 102.1 232.9 103.4 234.6C104.7 236.3 105.4 238.7 105.4 241.8ZM101.6 241.9C101.6 237.4 100.4 235.2 97.9001 235.2H96.4001V248.7H97.6001C99.0001 248.7 100 248.1 100.6 247C101.3 245.9 101.6 244.2 101.6 241.9Z" fill="#404040"/>
<path d="M113.7 252.3C111.8 252.3 110.3 251.6 109.2 250.3C108.1 248.9 107.6 247 107.6 244.6C107.6 242.1 108.1 240.1 109.1 238.7C110.1 237.3 111.5 236.6 113.3 236.6C115 236.6 116.3 237.2 117.2 238.4C118.1 239.6 118.6 241.3 118.6 243.5V245.4H111.3C111.3 246.8 111.6 247.8 112.1 248.4C112.6 249.1 113.4 249.4 114.3 249.4C115.5 249.4 116.7 249 117.9 248.3V251.3C116.7 251.9 115.3 252.3 113.7 252.3ZM113.2 239.3C112.7 239.3 112.3 239.6 111.9 240.1C111.6 240.7 111.4 241.5 111.3 242.7H115C115 241.6 114.8 240.7 114.5 240.2C114.2 239.6 113.7 239.3 113.2 239.3Z" fill="#404040"/>
<path d="M136.1 252V242.9C136.1 240.7 135.5 239.6 134.4 239.6C133.6 239.6 133 240 132.7 240.8C132.4 241.6 132.2 242.9 132.2 244.6V252H128.5V242.9C128.5 240.7 127.9 239.6 126.8 239.6C126 239.6 125.4 240 125.1 240.8C124.8 241.6 124.6 242.9 124.6 244.7V252H121V236.8H123.9L124.3 238.8H124.5C124.9 238 125.4 237.5 126 237.1C126.6 236.7 127.3 236.6 128 236.6C129.9 236.6 131.1 237.5 131.7 239.2H131.8C132.6 237.4 133.8 236.6 135.5 236.6C136.8 236.6 137.9 237.1 138.6 238C139.3 238.9 139.6 240.3 139.6 242.2V252.1H136.1V252Z" fill="#404040"/>
<path d="M154 244.4C154 246.9 153.5 248.8 152.4 250.2C151.3 251.6 149.9 252.3 148.1 252.3C146.9 252.3 145.9 252 145 251.3C144.1 250.7 143.4 249.7 142.9 248.5C142.4 247.3 142.2 245.9 142.2 244.3C142.2 241.8 142.7 239.9 143.8 238.5C144.8 237.1 146.3 236.4 148.2 236.4C150 236.4 151.4 237.1 152.5 238.5C153.4 240 154 241.9 154 244.4ZM145.9 244.4C145.9 246 146.1 247.2 146.4 248C146.7 248.8 147.3 249.2 148.1 249.2C149.6 249.2 150.3 247.6 150.3 244.4C150.3 242.8 150.1 241.6 149.8 240.8C149.4 240 148.9 239.6 148.1 239.6C147.3 239.6 146.8 240 146.4 240.8C146.1 241.6 145.9 242.8 145.9 244.4Z" fill="#404040"/>
<path d="M38.215 269.9H35.7282L33.8916 265.295L32.1868 269.9H29.7L32.635 263.222L29.9196 257.053H32.3274L34.0234 261.279L35.4909 257.053H37.9953L35.28 263.327L38.215 269.9Z" fill="#FF7200"/>
<path d="M45.5283 269.9L44.7901 266.657H41.4421L40.704 269.9H38.3138L41.4948 257H44.7374L47.9273 269.9H45.5283ZM44.342 264.54L43.6566 261.552C43.6155 261.37 43.5218 260.916 43.3754 260.19C43.2348 259.458 43.1498 258.968 43.1205 258.722C43.0444 259.226 42.9477 259.783 42.8305 260.392C42.7134 260.995 42.4087 262.378 41.9166 264.54H44.342Z" fill="#FF7200"/>
<path d="M51.5234 269.9H49.1508V257.053H54.9066V259.118H51.5234V262.685H54.6781V264.751H51.5234V269.9Z" fill="#FF7200"/>
</svg>
