<svg width="129" height="18" viewBox="0 0 129 18" fill="none" xmlns="http://www.w3.org/2000/svg">
<path d="M9.179 16H6.49824L4.51846 11.0363L2.68076 16H0L3.16387 8.80079L0.236816 2.15099H2.83232L4.66055 6.70733L6.24248 2.15099H8.94219L6.01514 8.91446L9.179 16ZM17.0625 16L16.2668 12.5046H12.6577L11.862 16H9.28548L12.7146 2.09415H16.21L19.6486 16H17.0625ZM15.7837 10.2217L15.0449 7.00099C15.0006 6.80522 14.8996 6.3158 14.7417 5.53273C14.5902 4.74334 14.4986 4.21603 14.467 3.95079C14.3849 4.49389 14.2807 5.09383 14.1544 5.7506C14.0281 6.40105 13.6997 7.89142 13.1693 10.2217H15.7837ZM23.5252 16H20.9675V2.15099H27.1721V4.37706H23.5252V8.22296H26.9258V10.449H23.5252V16ZM33.8928 2.15099H37.4261C38.8659 2.15099 39.9142 2.43201 40.571 2.99405C41.2278 3.54978 41.5562 4.43705 41.5562 5.65587C41.5562 6.45789 41.3825 7.13045 41.0352 7.67355C40.6878 8.21033 40.2142 8.53556 39.6143 8.64923V8.74396C40.3973 8.93972 40.9625 9.306 41.3099 9.84278C41.6572 10.3796 41.8309 11.0932 41.8309 11.9836C41.8309 13.2403 41.493 14.2255 40.8173 14.9391C40.1479 15.6464 39.229 16 38.0608 16H33.8928V2.15099ZM36.3178 7.72091H37.5019C38.045 7.72091 38.427 7.57566 38.6481 7.28517C38.8691 6.99467 38.9796 6.56209 38.9796 5.98741C38.9796 5.41274 38.8533 5.00226 38.6007 4.75597C38.3481 4.50336 37.9502 4.37706 37.4071 4.37706H36.3178V7.72091ZM36.3178 9.8712V13.7455H37.6155C38.1523 13.7455 38.5502 13.5813 38.8091 13.2529C39.0743 12.9245 39.2069 12.4162 39.2069 11.7278C39.2069 10.4901 38.6638 9.8712 37.5776 9.8712H36.3178ZM46.1906 16H43.6708V1.26056H46.1906V16ZM53.5815 16L53.0795 14.5602H53.0226C52.65 15.179 52.2648 15.6053 51.867 15.839C51.4691 16.0726 50.9671 16.1895 50.3608 16.1895C49.5841 16.1895 48.9715 15.899 48.5231 15.318C48.0811 14.737 47.86 13.9286 47.86 12.893C47.86 11.7815 48.1632 10.9574 48.7694 10.4206C49.382 9.87752 50.2945 9.57755 51.507 9.52071L52.909 9.46388V8.70606C52.909 7.72091 52.4827 7.22833 51.6301 7.22833C50.9986 7.22833 50.2724 7.47462 49.4514 7.9672L48.5799 6.22423C49.6283 5.56114 50.7681 5.2296 51.9996 5.2296C53.1174 5.2296 53.9667 5.55167 54.5477 6.19581C55.135 6.83364 55.4287 7.73985 55.4287 8.91446V16H53.5815ZM51.3933 14.2191C51.8543 14.2191 52.2206 14.0139 52.4922 13.6034C52.77 13.1866 52.909 12.634 52.909 11.9457V11.0553L52.1322 11.0932C51.5575 11.1247 51.1344 11.2889 50.8629 11.5857C50.5976 11.8826 50.465 12.3246 50.465 12.9119C50.465 13.7834 50.7744 14.2191 51.3933 14.2191ZM63.028 16H56.8803V14.3896L60.1199 7.48409H57.0887V5.44747H62.8954V7.22833L59.7505 13.9634H63.028V16ZM72.4082 10.7048C72.4082 12.4351 72.0419 13.7834 71.3094 14.7496C70.5768 15.7095 69.5727 16.1895 68.2971 16.1895C67.4888 16.1895 66.7752 15.9684 66.1563 15.5264C65.5374 15.0843 65.0606 14.4496 64.7259 13.6224C64.3912 12.7888 64.2238 11.8162 64.2238 10.7048C64.2238 8.9934 64.587 7.65776 65.3132 6.69786C66.0394 5.73165 67.0467 5.24855 68.335 5.24855C69.5791 5.24855 70.5674 5.74112 71.2999 6.72628C72.0388 7.70512 72.4082 9.03129 72.4082 10.7048ZM66.8004 10.7048C66.8004 11.8036 66.9204 12.634 67.1604 13.1961C67.4003 13.7581 67.7856 14.0392 68.316 14.0392C69.3265 14.0392 69.8317 12.9277 69.8317 10.7048C69.8317 9.59965 69.7085 8.77553 69.4622 8.23243C69.2223 7.68302 68.8402 7.40831 68.316 7.40831C67.7856 7.40831 67.4003 7.68302 67.1604 8.23243C66.9204 8.77553 66.8004 9.59965 66.8004 10.7048ZM78.7761 5.24855C79.0856 5.24855 79.3887 5.29591 79.6855 5.39064L79.3918 7.83458C79.215 7.77143 78.9845 7.73985 78.7003 7.73985C78.0878 7.73985 77.6173 7.98299 77.2889 8.46925C76.9605 8.9492 76.7963 9.65017 76.7963 10.5722V16H74.2766V5.44747H76.3511L76.6353 7.09571H76.7206C76.9984 6.43263 77.3015 5.95899 77.6299 5.67481C77.9583 5.39064 78.3404 5.24855 78.7761 5.24855ZM94.761 8.94288C94.761 11.2289 94.2937 12.9782 93.3591 14.1907C92.4308 15.3969 91.092 16 89.3427 16H85.9515V2.15099H89.6553C91.2656 2.15099 92.5192 2.74776 93.4159 3.94132C94.3127 5.12856 94.761 6.79575 94.761 8.94288ZM92.1182 9.01866C92.1182 5.92426 91.2656 4.37706 89.5606 4.37706H88.528V13.7455H89.3616C90.3026 13.7455 90.9972 13.354 91.4456 12.5709C91.894 11.7815 92.1182 10.5974 92.1182 9.01866ZM100.627 16.1895C99.307 16.1895 98.265 15.7221 97.5009 14.7875C96.7431 13.8465 96.3642 12.5172 96.3642 10.7995C96.3642 9.05655 96.7084 7.69565 97.3967 6.71681C98.0851 5.73797 99.045 5.24855 100.276 5.24855C101.426 5.24855 102.332 5.6685 102.995 6.50841C103.658 7.342 103.99 8.51345 103.99 10.0228V11.3679H98.9218C98.9408 12.3088 99.1334 13.0098 99.4996 13.4708C99.8659 13.9255 100.371 14.1528 101.015 14.1528C101.836 14.1528 102.676 13.8971 103.535 13.3855V15.4601C102.727 15.9463 101.757 16.1895 100.627 16.1895ZM100.257 7.19044C99.8975 7.19044 99.6007 7.38305 99.367 7.76827C99.1334 8.14718 98.9976 8.73764 98.9597 9.53966H101.517C101.505 8.76922 101.388 8.18507 101.167 7.78722C100.946 7.38937 100.643 7.19044 100.257 7.19044ZM116.231 16V9.71017C116.231 8.16297 115.849 7.38937 115.084 7.38937C114.529 7.38937 114.131 7.66723 113.891 8.22296C113.651 8.77237 113.531 9.65649 113.531 10.8753V16H110.992V9.71017C110.992 8.16297 110.604 7.38937 109.827 7.38937C109.284 7.38937 108.889 7.66407 108.643 8.21349C108.397 8.7629 108.274 9.66912 108.274 10.9321V16H105.754V5.44747H107.753L108.056 6.80206H108.217C108.469 6.26528 108.814 5.87374 109.249 5.62745C109.691 5.37485 110.162 5.24855 110.661 5.24855C111.949 5.24855 112.808 5.85795 113.237 7.07677H113.332C113.869 5.85795 114.731 5.24855 115.918 5.24855C116.853 5.24855 117.56 5.57693 118.04 6.2337C118.526 6.89047 118.769 7.85037 118.769 9.11339V16H116.231ZM128.727 10.7048C128.727 12.4351 128.361 13.7834 127.629 14.7496C126.896 15.7095 125.892 16.1895 124.616 16.1895C123.808 16.1895 123.094 15.9684 122.475 15.5264C121.856 15.0843 121.38 14.4496 121.045 13.6224C120.71 12.7888 120.543 11.8162 120.543 10.7048C120.543 8.9934 120.906 7.65776 121.632 6.69786C122.359 5.73165 123.366 5.24855 124.654 5.24855C125.898 5.24855 126.886 5.74112 127.619 6.72628C128.358 7.70512 128.727 9.03129 128.727 10.7048ZM123.12 10.7048C123.12 11.8036 123.24 12.634 123.479 13.1961C123.719 13.7581 124.105 14.0392 124.635 14.0392C125.646 14.0392 126.151 12.9277 126.151 10.7048C126.151 9.59965 126.028 8.77553 125.781 8.23243C125.541 7.68302 125.159 7.40831 124.635 7.40831C124.105 7.40831 123.719 7.68302 123.479 8.23243C123.24 8.77553 123.12 9.59965 123.12 10.7048Z" fill="#4A4A4A"/>
</svg>
