<?xml version="1.0" encoding="UTF-8" standalone="no"?>
<!DOCTYPE svg PUBLIC "-//W3C//DTD SVG 1.1//EN" "http://www.w3.org/Graphics/SVG/1.1/DTD/svg11.dtd">
<svg width="100%" height="100%" viewBox="0 0 2872 347" version="1.1" xmlns="http://www.w3.org/2000/svg" xmlns:xlink="http://www.w3.org/1999/xlink" xml:space="preserve" xmlns:serif="http://www.serif.com/" style="fill-rule:evenodd;clip-rule:evenodd;stroke-linejoin:round;stroke-miterlimit:2;">
    <g transform="matrix(2.66667,0,0,2.66667,-45.3393,-135.572)">
        <g transform="matrix(1,0,0,1,1.58036,180.871)">
            <g>
                <g>
                    <path d="M15.422,-130.031L74.484,-130.031C88.609,-130.031 101.086,-127.336 111.922,-121.953C122.754,-116.566 131.176,-108.977 137.188,-99.188C143.195,-89.406 146.203,-78.016 146.203,-65.016C146.203,-52.016 143.195,-40.617 137.188,-30.828C131.176,-21.047 122.754,-13.461 111.922,-8.078C101.086,-2.691 88.609,0 74.484,0L15.422,0L15.422,-130.031ZM73,-24.703C86.008,-24.703 96.383,-28.32 104.125,-35.563C111.863,-42.813 115.734,-52.629 115.734,-65.016C115.734,-77.398 111.863,-87.211 104.125,-94.453C96.383,-101.703 86.008,-105.328 73,-105.328L45.516,-105.328L45.516,-24.703L73,-24.703Z" style="fill-rule:nonzero;"/>
                </g>
            </g>
        </g>
        <g transform="matrix(1,0,0,1,142.016,180.871)">
            <g>
                <g>
                    <path d="M101.063,-27.859L40.688,-27.859L29.172,0L-1.672,0L56.281,-130.031L86.016,-130.031L144.156,0L112.578,0L101.063,-27.859ZM91.578,-50.719L70.969,-100.5L50.344,-50.719L91.578,-50.719Z" style="fill-rule:nonzero;"/>
                </g>
            </g>
        </g>
        <g transform="matrix(1,0,0,1,266.661,180.871)">
            <g>
                <g>
                    <path d="M42.359,-105.516L0.75,-105.516L0.75,-130.031L114.063,-130.031L114.063,-105.516L72.453,-105.516L72.453,0L42.359,0L42.359,-105.516Z" style="fill-rule:nonzero;"/>
                </g>
            </g>
        </g>
        <g transform="matrix(1,0,0,1,363.814,180.871)">
            <g>
                <g>
                    <path d="M101.063,-27.859L40.688,-27.859L29.172,0L-1.672,0L56.281,-130.031L86.016,-130.031L144.156,0L112.578,0L101.063,-27.859ZM91.578,-50.719L70.969,-100.5L50.344,-50.719L91.578,-50.719Z" style="fill-rule:nonzero;"/>
                </g>
            </g>
        </g>
        <g transform="matrix(1,0,0,1,536.386,180.871)">
            <g>
                <g>
                    <path d="M15.422,-130.031L74.484,-130.031C88.609,-130.031 101.086,-127.336 111.922,-121.953C122.754,-116.566 131.176,-108.977 137.188,-99.188C143.195,-89.406 146.203,-78.016 146.203,-65.016C146.203,-52.016 143.195,-40.617 137.188,-30.828C131.176,-21.047 122.754,-13.461 111.922,-8.078C101.086,-2.691 88.609,0 74.484,0L15.422,0L15.422,-130.031ZM73,-24.703C86.008,-24.703 96.383,-28.32 104.125,-35.563C111.863,-42.813 115.734,-52.629 115.734,-65.016C115.734,-77.398 111.863,-87.211 104.125,-94.453C96.383,-101.703 86.008,-105.328 73,-105.328L45.516,-105.328L45.516,-24.703L73,-24.703Z" style="fill-rule:nonzero;"/>
                </g>
            </g>
        </g>
        <g transform="matrix(1,0,0,1,678.679,180.871)">
            <g>
                <g>
                    <path d="M98.266,0L73.188,-36.219L45.516,-36.219L45.516,0L15.422,0L15.422,-130.031L71.703,-130.031C83.223,-130.031 93.223,-128.109 101.703,-124.266C110.191,-120.43 116.723,-114.984 121.297,-107.922C125.879,-100.867 128.172,-92.508 128.172,-82.844C128.172,-73.188 125.848,-64.859 121.203,-57.859C116.566,-50.867 109.973,-45.516 101.422,-41.797L130.594,0L98.266,0ZM97.719,-82.844C97.719,-90.156 95.363,-95.758 90.656,-99.656C85.945,-103.563 79.07,-105.516 70.031,-105.516L45.516,-105.516L45.516,-60.188L70.031,-60.188C79.07,-60.188 85.945,-62.164 90.656,-66.125C95.363,-70.094 97.719,-75.664 97.719,-82.844Z" style="fill-rule:nonzero;"/>
                </g>
            </g>
        </g>
        <g transform="matrix(1,0,0,1,804.067,180.871)">
            <g>
                <g>
                    <rect x="15.422" y="-130.031" width="30.094" height="130.031" style="fill-rule:nonzero;"/>
                </g>
            </g>
        </g>
        <g transform="matrix(1,0,0,1,853.108,180.871)">
            <g>
                <g>
                    <path d="M140.438,-130.031L84.156,0L54.422,0L-1.672,-130.031L30.844,-130.031L70.406,-37.156L110.531,-130.031L140.438,-130.031Z" style="fill-rule:nonzero;"/>
                </g>
            </g>
        </g>
        <g transform="matrix(1,0,0,1,977.754,180.871)">
            <g>
                <g>
                    <path d="M116.109,-24.156L116.109,0L15.422,0L15.422,-130.031L113.688,-130.031L113.688,-105.891L45.328,-105.891L45.328,-77.656L105.703,-77.656L105.703,-54.25L45.328,-54.25L45.328,-24.156L116.109,-24.156Z" style="fill-rule:nonzero;"/>
                </g>
            </g>
        </g>
    </g>
</svg>
